<svg width="51" height="50" fill="none" xmlns="http://www.w3.org/2000/svg"><rect width="50.347" height="50" rx="10" fill="#EDFAE3"/><path d="M25.647 12c-6.888 0-12.557 5.643-12.557 12.5S18.76 37 25.647 37c6.887 0 12.617-5.582 12.617-12.5S32.595 12 25.647 12Zm10.24 11.408h-4.572a17.94 17.94 0 0 0-3.047-8.738 10.191 10.191 0 0 1 7.619 8.738Zm-13.593 2.245H29a16.702 16.702 0 0 1-3.352 8.495 16.702 16.702 0 0 1-3.353-8.495Zm0-2.245a16.702 16.702 0 0 1 3.353-8.495c1.89 2.488 3.108 5.4 3.352 8.495h-6.705Zm.793-8.799a17.938 17.938 0 0 0-3.048 8.738h-4.572c.427-4.187 3.536-7.646 7.62-8.738Zm-7.62 11.044h4.572a17.938 17.938 0 0 0 3.048 8.738c-4.084-1.032-7.193-4.49-7.62-8.738Zm12.8 8.799a17.94 17.94 0 0 0 3.048-8.738h4.572c-.488 4.187-3.536 7.645-7.62 8.738Z" fill="#65CE54"/></svg>