<svg width="51" height="50" fill="none" xmlns="http://www.w3.org/2000/svg"><rect width="50.347" height="50" rx="10" fill="#FFF8E3"/><path d="M25.677 12c-6.935 0-12.587 5.613-12.587 12.5v8.75c0 2.063 1.7 3.75 3.776 3.75h1.259c2.077 0 3.776-1.688 3.776-3.75V29.5c0-2.063-1.7-3.75-3.776-3.75h-2.517V24.5c0-5.512 4.518-10 10.07-10 5.55 0 10.068 4.488 10.068 10v1.25H33.23c-2.077 0-3.776 1.688-3.776 3.75v3.75c0 2.063 1.7 3.75 3.776 3.75h1.259c2.077 0 3.776-1.688 3.776-3.75V24.5c0-6.887-5.652-12.5-12.587-12.5Zm-7.552 16.25c.692 0 1.259.563 1.259 1.25v3.75c0 .688-.567 1.25-1.259 1.25h-1.259a1.258 1.258 0 0 1-1.258-1.25v-5h2.517Zm17.621 5c0 .688-.566 1.25-1.258 1.25h-1.259a1.258 1.258 0 0 1-1.258-1.25V29.5c0-.688.566-1.25 1.258-1.25h2.517v5Z" fill="#FFC01E"/></svg>