<svg aria-hidden="true" style="width:0;height:0;position:absolute;overflow:hidden" xmlns="http://www.w3.org/2000/svg"><defs><symbol id="icon-facebook" viewBox="0 0 32 32"><path fill="#fff" style="fill:var(--color1,#fff)" d="M19 6h5V0h-5c-3.86 0-7 3.14-7 7v3H8v6h4v16h6V16h5l1-6h-6V7c0-.542.458-1 1-1z"/></symbol><symbol id="icon-instagram" viewBox="0 0 32 32"><path fill="#fff" style="fill:var(--color1,#fff)" d="M16 2.881c4.275 0 4.781.019 6.462.094 1.563.069 2.406.331 2.969.55a4.952 4.952 0 0 1 1.837 1.194 5.015 5.015 0 0 1 1.2 1.838c.219.563.481 1.412.55 2.969.075 1.688.094 2.194.094 6.463s-.019 4.781-.094 6.463c-.069 1.563-.331 2.406-.55 2.969a4.94 4.94 0 0 1-1.194 1.837 5.02 5.02 0 0 1-1.837 1.2c-.563.219-1.413.481-2.969.55-1.688.075-2.194.094-6.463.094s-4.781-.019-6.463-.094c-1.563-.069-2.406-.331-2.969-.55a4.952 4.952 0 0 1-1.838-1.194 5.02 5.02 0 0 1-1.2-1.837c-.219-.563-.481-1.413-.55-2.969-.075-1.688-.094-2.194-.094-6.463s.019-4.781.094-6.463c.069-1.563.331-2.406.55-2.969a4.964 4.964 0 0 1 1.194-1.838 5.015 5.015 0 0 1 1.838-1.2c.563-.219 1.412-.481 2.969-.55 1.681-.075 2.188-.094 6.463-.094H16zM16 0c-4.344 0-4.887.019-6.594.094-1.7.075-2.869.35-3.881.744-1.056.412-1.95.956-2.837 1.85a7.833 7.833 0 0 0-1.85 2.831C.444 6.538.169 7.7.094 9.4.019 11.113 0 11.656 0 16s.019 4.887.094 6.594c.075 1.7.35 2.869.744 3.881.413 1.056.956 1.95 1.85 2.837a7.82 7.82 0 0 0 2.831 1.844c1.019.394 2.181.669 3.881.744 1.706.075 2.25.094 6.594.094s4.888-.019 6.594-.094c1.7-.075 2.869-.35 3.881-.744 1.05-.406 1.944-.956 2.831-1.844s1.438-1.781 1.844-2.831c.394-1.019.669-2.181.744-3.881.075-1.706.094-2.25.094-6.594s-.019-4.887-.094-6.594c-.075-1.7-.35-2.869-.744-3.881a7.506 7.506 0 0 0-1.831-2.844A7.82 7.82 0 0 0 26.482.843C25.463.449 24.301.174 22.601.099c-1.712-.081-2.256-.1-6.6-.1L16 0z"/><path fill="#fff" style="fill:var(--color1,#fff)" d="M16 7.781c-4.537 0-8.219 3.681-8.219 8.219s3.681 8.219 8.219 8.219A8.22 8.22 0 0 0 24.219 16 8.221 8.221 0 0 0 16 7.781zm0 13.55a5.331 5.331 0 1 1 0-10.663 5.331 5.331 0 0 1 0 10.663zM26.462 7.456a1.919 1.919 0 1 1-3.838 0 1.919 1.919 0 0 1 3.838 0z"/></symbol><symbol id="icon-telegram" viewBox="0 0 32 32"><path fill="#fff" style="fill:var(--color1,#fff)" d="M16 0C7.162 0 0 7.162 0 16s7.162 16 16 16c8.838 0 16-7.163 16-16S24.837 0 16 0zm7.863 10.969-2.625 12.369c-.181.881-.712 1.087-1.45.681l-4-2.956-1.919 1.869c-.225.219-.4.4-.8.4-.519 0-.431-.194-.606-.688L11.1 18.169l-3.956-1.231c-.856-.262-.862-.85.194-1.269l15.412-5.95c.7-.319 1.381.169 1.113 1.25z"/></symbol><symbol id="icon-youtube" viewBox="0 0 32 32"><path fill="#fff" style="fill:var(--color1,#fff)" d="M31.681 9.6s-.313-2.206-1.275-3.175C29.187 5.15 27.825 5.144 27.2 5.069c-4.475-.325-11.194-.325-11.194-.325h-.012s-6.719 0-11.194.325c-.625.075-1.987.081-3.206 1.356C.631 7.394.325 9.6.325 9.6s-.319 2.588-.319 5.181v2.425c0 2.587.319 5.181.319 5.181s.313 2.206 1.269 3.175c1.219 1.275 2.819 1.231 3.531 1.369 2.563.244 10.881.319 10.881.319s6.725-.012 11.2-.331c.625-.075 1.988-.081 3.206-1.356.962-.969 1.275-3.175 1.275-3.175s.319-2.587.319-5.181v-2.425C32 12.194 31.681 9.6 31.681 9.6zM12.694 20.15v-8.994l8.644 4.513-8.644 4.481z"/></symbol><symbol id="icon-user" viewBox="0 0 30 32"><path fill="#fff" style="fill:var(--color1,#fff)" d="M7.156 8.076c0 4.608 3.476 8.35 7.753 8.35s7.753-3.742 7.753-8.35c0-4.464-3.331-7.844-7.753-7.844s-7.753 3.38-7.753 7.844zm2.342.014c0-3.207 2.269-5.533 5.411-5.533 3.084 0 5.411 2.369 5.411 5.533 0 3.337-2.429 6.039-5.411 6.039s-5.411-2.716-5.411-6.038zM0 30.856c0 .636.524 1.156 1.164 1.156h27.491c.64 0 1.164-.52 1.164-1.156 0-8.205-5.295-12.727-14.909-12.727S.001 22.651.001 30.856zm27.447-1.17H2.385c.451-6.125 4.655-9.246 12.524-9.246s12.073 3.106 12.538 9.246z"/></symbol><symbol id="icon-cush-logo" viewBox="0 0 32 32"><path d="M0 0h31.584v32H0V0z"/></symbol><symbol id="icon-number" viewBox="0 0 12 12"><path d="M9.465 11.667c-.04 0-.086 0-.126-.005a10.514 10.514 0 0 1-4.555-1.611 10.297 10.297 0 0 1-3.16-3.144 10.375 10.375 0 0 1-1.616-4.54c-.04-.41.08-.798.34-1.103C.606.955.972.77 1.369.73c.044-.005.09-.005.135-.005H3.023c.742 0 1.38.55 1.485 1.288.06.444.17.878.326 1.297a1.484 1.484 0 0 1-.341 1.577l-.361.359a7.56 7.56 0 0 0 2.302 2.29l.362-.36a1.523 1.523 0 0 1 1.59-.339 5.82 5.82 0 0 0 1.3.32 1.502 1.502 0 0 1 1.299 1.512v1.491c0 .4-.156.774-.437 1.058-.28.284-.662.44-1.063.444-.01.005-.015.005-.02.005ZM3.018 1.723c-.005 0-.005 0 0 0H1.503c-.181.015-.301.075-.387.18a.499.499 0 0 0-.115.364 9.38 9.38 0 0 0 1.465 4.101 9.343 9.343 0 0 0 2.86 2.844A9.524 9.524 0 0 0 9.44 10.67c.175.02.296-.05.391-.144a.492.492 0 0 0 .145-.355V8.66a.498.498 0 0 0-.431-.504A7.008 7.008 0 0 1 8.03 7.78a.508.508 0 0 0-.532.11l-.637.634a.503.503 0 0 1-.602.08 8.51 8.51 0 0 1-3.196-3.179.497.497 0 0 1 .08-.598l.637-.634a.512.512 0 0 0 .11-.534 6.89 6.89 0 0 1-.38-1.512.496.496 0 0 0-.492-.424Zm5.955 3.468a.499.499 0 0 1-.492-.404A1.984 1.984 0 0 0 6.896 3.21a.498.498 0 1 1 .19-.978 2.989 2.989 0 0 1 2.379 2.365.496.496 0 0 1-.397.584c-.035.005-.065.01-.095.01Zm2.007-.005a.499.499 0 0 1-.497-.444 3.986 3.986 0 0 0-3.547-3.523.498.498 0 0 1-.441-.548.5.5 0 0 1 .552-.44c2.348.26 4.169 2.071 4.43 4.401a.503.503 0 0 1-.442.554h-.055Z" fill="#FF715B"/></symbol><symbol id="icon-email" viewBox="0 0 12 10"><path d="M9.532.518H1.505C.677.518 0 1.192 0 2.015v5.987C0 8.825.677 9.5 1.505 9.5h8.027c.828 0 1.505-.674 1.505-1.497V2.015c0-.823-.677-1.497-1.505-1.497Zm-8.027.998h8.027c.196 0 .362.115.447.28l-4.46 3.103-4.46-3.104a.504.504 0 0 1 .446-.28ZM9.532 8.5H1.505a.502.502 0 0 1-.502-.499v-5.03l4.23 2.945a.497.497 0 0 0 .572 0l4.23-2.944v5.03a.502.502 0 0 1-.503.498Z" fill="#FF715B"/></symbol><symbol id="icon-adress" viewBox="0 0 12 14"><path fill-rule="evenodd" clip-rule="evenodd" d="M5.215 13.595a.54.54 0 0 0 .304.095.54.54 0 0 0 .303-.095c.216-.14 5.215-3.585 5.215-7.77C11.037 2.73 8.56.207 5.52.207S0 2.73 0 5.825c0 4.186 5 7.63 5.215 7.77Zm-4.111-7.77c0-2.477 1.981-4.494 4.415-4.494s4.415 2.017 4.415 4.494c0 3.04-3.367 5.82-4.415 6.612-1.049-.792-4.415-3.573-4.415-6.612Zm2.124 0c0 1.242.963 2.248 2.152 2.248S7.53 7.067 7.53 5.826c0-1.242-.962-2.248-2.151-2.248-1.19 0-2.152 1.006-2.152 2.248Zm1.076 0c0-.617.484-1.123 1.076-1.123.591 0 1.076.506 1.076 1.124 0 .618-.485 1.123-1.076 1.123-.592 0-1.076-.505-1.076-1.123Z" fill="#FF715B"/></symbol><symbol id="icon-user1" viewBox="0 0 19 20"><path fill-rule="evenodd" clip-rule="evenodd" d="M4.473 5.047c0 2.88 2.172 5.22 4.845 5.22 2.673 0 4.846-2.34 4.846-5.22 0-2.79-2.082-4.902-4.846-4.902-2.764 0-4.845 2.113-4.845 4.902Zm1.463.01c0-2.005 1.418-3.459 3.382-3.459 1.927 0 3.382 1.481 3.382 3.458 0 2.086-1.518 3.775-3.382 3.775S5.936 7.133 5.936 5.056ZM0 19.284c0 .397.327.723.727.723H17.91c.4 0 .727-.326.727-.723 0-5.128-3.309-7.954-9.318-7.954C3.31 11.33 0 14.157 0 19.285Zm17.154-.731H1.491c.282-3.828 2.909-5.779 7.827-5.779s7.546 1.941 7.836 5.779Z"/></symbol></defs></svg>