<svg width="12" height="14" fill="none" xmlns="http://www.w3.org/2000/svg"><path fill-rule="evenodd" clip-rule="evenodd" d="M5.215 13.595a.54.54 0 0 0 .304.095.54.54 0 0 0 .303-.095c.216-.14 5.215-3.585 5.215-7.77C11.037 2.73 8.56.207 5.52.207S0 2.73 0 5.825c0 4.186 5 7.63 5.215 7.77Zm-4.111-7.77c0-2.477 1.981-4.494 4.415-4.494s4.415 2.017 4.415 4.494c0 3.04-3.367 5.82-4.415 6.612-1.049-.792-4.415-3.573-4.415-6.612Zm2.124 0c0 1.242.963 2.248 2.152 2.248S7.53 7.067 7.53 5.826c0-1.242-.962-2.248-2.151-2.248-1.19 0-2.152 1.006-2.152 2.248Zm1.076 0c0-.617.484-1.123 1.076-1.123.591 0 1.076.506 1.076 1.124 0 .618-.485 1.123-1.076 1.123-.592 0-1.076-.505-1.076-1.123Z" fill="#FF715B"/></svg>