<svg width="12" height="12" fill="none" xmlns="http://www.w3.org/2000/svg"><path d="M9.465 11.667c-.04 0-.086 0-.126-.005a10.514 10.514 0 0 1-4.555-1.611 10.297 10.297 0 0 1-3.16-3.144 10.375 10.375 0 0 1-1.616-4.54c-.04-.41.08-.798.34-1.103C.606.955.972.77 1.369.73c.044-.005.09-.005.135-.005H3.023c.742 0 1.38.55 1.485 1.288.06.444.17.878.326 1.297a1.484 1.484 0 0 1-.341 1.577l-.361.359a7.56 7.56 0 0 0 2.302 2.29l.362-.36a1.523 1.523 0 0 1 1.59-.339 5.82 5.82 0 0 0 1.3.32 1.502 1.502 0 0 1 1.299 1.512v1.491c0 .4-.156.774-.437 1.058-.28.284-.662.44-1.063.444-.01.005-.015.005-.02.005ZM3.018 1.723c-.005 0-.005 0 0 0H1.503c-.181.015-.301.075-.387.18a.499.499 0 0 0-.115.364 9.38 9.38 0 0 0 1.465 4.101 9.343 9.343 0 0 0 2.86 2.844A9.524 9.524 0 0 0 9.44 10.67c.175.02.296-.05.391-.144a.492.492 0 0 0 .145-.355V8.66a.498.498 0 0 0-.431-.504A7.008 7.008 0 0 1 8.03 7.78a.508.508 0 0 0-.532.11l-.637.634a.503.503 0 0 1-.602.08 8.51 8.51 0 0 1-3.196-3.179.497.497 0 0 1 .08-.598l.637-.634a.512.512 0 0 0 .11-.534 6.89 6.89 0 0 1-.38-1.512.496.496 0 0 0-.492-.424Zm5.955 3.468a.499.499 0 0 1-.492-.404A1.984 1.984 0 0 0 6.896 3.21a.498.498 0 1 1 .19-.978 2.989 2.989 0 0 1 2.379 2.365.496.496 0 0 1-.397.584c-.035.005-.065.01-.095.01Zm2.007-.005a.499.499 0 0 1-.497-.444 3.986 3.986 0 0 0-3.547-3.523.498.498 0 0 1-.441-.548.5.5 0 0 1 .552-.44c2.348.26 4.169 2.071 4.43 4.401a.503.503 0 0 1-.442.554h-.055Z" fill="#FF715B"/></svg>