<svg width="19" height="20" fill="none" xmlns="http://www.w3.org/2000/svg"><path fill-rule="evenodd" clip-rule="evenodd" d="M4.473 5.047c0 2.88 2.172 5.22 4.845 5.22 2.673 0 4.846-2.34 4.846-5.22 0-2.79-2.082-4.902-4.846-4.902-2.764 0-4.845 2.113-4.845 4.902Zm1.463.01c0-2.005 1.418-3.459 3.382-3.459 1.927 0 3.382 1.481 3.382 3.458 0 2.086-1.518 3.775-3.382 3.775S5.936 7.133 5.936 5.056ZM0 19.284c0 .397.327.723.727.723H17.91c.4 0 .727-.326.727-.723 0-5.128-3.309-7.954-9.318-7.954C3.31 11.33 0 14.157 0 19.285Zm17.154-.731H1.491c.282-3.828 2.909-5.779 7.827-5.779s7.546 1.941 7.836 5.779Z" fill="#fff"/></svg>