<svg width="19" height="20" viewBox="0 0 19 20" fill="none" xmlns="http://www.w3.org/2000/svg">
<path fill-rule="evenodd" clip-rule="evenodd" d="M4.47266 5.04745C4.47266 7.92766 6.64538 10.2661 9.31811 10.2661C11.9908 10.2661 14.1636 7.92766 14.1636 5.04745C14.1636 2.25753 12.0817 0.144775 9.31811 0.144775C6.55447 0.144775 4.47266 2.25753 4.47266 5.04745ZM5.93629 5.05648C5.93629 3.05207 7.35447 1.59842 9.31811 1.59842C11.2454 1.59842 12.6999 3.07916 12.6999 5.05648C12.6999 7.14215 11.1817 8.83055 9.31811 8.83055C7.45447 8.83055 5.93629 7.13312 5.93629 5.05648ZM0 19.2851C0 19.6824 0.327273 20.0075 0.727273 20.0075H17.9091C18.3091 20.0075 18.6364 19.6824 18.6364 19.2851C18.6364 14.1568 15.3273 11.3307 9.31818 11.3307C3.30909 11.3307 0 14.1568 0 19.2851ZM17.1545 18.5538H1.49091C1.77273 14.7256 4.4 12.7753 9.31818 12.7753C14.2364 12.7753 16.8636 14.7165 17.1545 18.5538Z" fill="white"/>
</svg>
