<svg width="51" height="50" viewBox="0 0 51 50" fill="none" xmlns="http://www.w3.org/2000/svg">
<rect width="50.3472" height="50" rx="10" fill="#EDFAE3"/>
<path d="M25.6466 12C18.7589 12 13.0903 17.6432 13.0903 24.5C13.0903 31.3568 18.7589 37 25.6466 37C32.5343 37 38.2639 31.4175 38.2639 24.5C38.2639 17.5825 32.5952 12 25.6466 12ZM35.8867 23.4078H31.3152C31.0714 20.2524 30.0352 17.2791 28.2676 14.6699C32.3514 15.7015 35.3991 19.1602 35.8867 23.4078ZM22.2942 25.6529H28.999C28.6943 28.7476 27.5361 31.6602 25.6466 34.1481C23.7571 31.6602 22.5989 28.7476 22.2942 25.6529ZM22.2942 23.4078C22.5989 20.3131 23.7571 17.4005 25.6466 14.9126C27.5361 17.4005 28.7552 20.3131 28.999 23.4078H22.2942ZM23.0866 14.6092C21.3189 17.2184 20.2827 20.1917 20.0389 23.3471H15.4674C15.8941 19.1602 19.0027 15.7015 23.0866 14.6092ZM15.4674 25.6529H20.0389C20.2827 28.8083 21.3189 31.7816 23.0866 34.3908C19.0027 33.3592 15.8941 29.9005 15.4674 25.6529ZM28.2676 34.4515C30.0352 31.8422 31.0714 28.8689 31.3152 25.7136H35.8867C35.3991 29.9005 32.3514 33.3592 28.2676 34.4515Z" fill="#65CE54"/>
</svg>
