<svg width="51" height="50" viewBox="0 0 51 50" fill="none" xmlns="http://www.w3.org/2000/svg">
<rect width="50.3472" height="50" rx="10" fill="#FFF8E3"/>
<path d="M25.6771 12C18.7417 12 13.0903 17.6125 13.0903 24.5V27V32V33.25C13.0903 35.3125 14.7895 37 16.8663 37H18.125C20.2018 37 21.901 35.3125 21.901 33.25V29.5C21.901 27.4375 20.2018 25.75 18.125 25.75H15.6076V24.5C15.6076 18.9875 20.1263 14.5 25.6771 14.5C31.2279 14.5 35.7465 18.9875 35.7465 24.5V25.75H33.2292C31.1523 25.75 29.4531 27.4375 29.4531 29.5V33.25C29.4531 35.3125 31.1523 37 33.2292 37H34.4878C36.5647 37 38.2639 35.3125 38.2639 33.25V32V27V24.5C38.2639 17.6125 32.6124 12 25.6771 12ZM18.125 28.25C18.8173 28.25 19.3837 28.8125 19.3837 29.5V33.25C19.3837 33.9375 18.8173 34.5 18.125 34.5H16.8663C16.174 34.5 15.6076 33.9375 15.6076 33.25V32V28.25H18.125ZM35.7465 33.25C35.7465 33.9375 35.1801 34.5 34.4878 34.5H33.2292C32.5369 34.5 31.9705 33.9375 31.9705 33.25V29.5C31.9705 28.8125 32.5369 28.25 33.2292 28.25H35.7465V32V33.25Z" fill="#FFC01E"/>
</svg>
