<svg width="51" height="50" viewBox="0 0 51 50" fill="none" xmlns="http://www.w3.org/2000/svg">
<rect width="50.3472" height="50" rx="10" fill="#FF715B"/>
<path d="M24.7486 24.8587C27.7846 24.8587 30.2457 22.3955 30.2457 19.3571C30.2457 16.3186 27.7846 13.8555 24.7486 13.8555C21.7127 13.8555 19.2515 16.3186 19.2515 19.3571C19.2515 22.3955 21.7127 24.8587 24.7486 24.8587Z" stroke="white" stroke-width="2" stroke-linecap="round" stroke-linejoin="round"/>
<path d="M35.2431 37.8617V35.1943C35.2431 33.7794 34.6639 32.4224 33.633 31.4219C32.6021 30.4214 31.2039 29.8594 29.746 29.8594H18.7518C17.2939 29.8594 15.8957 30.4214 14.8648 31.4219C13.8339 32.4224 13.2548 33.7794 13.2548 35.1943V37.8617" stroke="white" stroke-width="2" stroke-linecap="round" stroke-linejoin="round"/>
</svg>
