<svg aria-hidden="true" style="position: absolute; width: 0; height: 0; overflow: hidden;" version="1.1" xmlns="http://www.w3.org/2000/svg" xmlns:xlink="http://www.w3.org/1999/xlink">
<defs>
<symbol id="icon-facebook" viewBox="0 0 32 32">
<path fill="#fff" style="fill: var(--color1, #fff)" d="M19 6h5v-6h-5c-3.86 0-7 3.14-7 7v3h-4v6h4v16h6v-16h5l1-6h-6v-3c0-0.542 0.458-1 1-1z"></path>
</symbol>
<symbol id="icon-instagram" viewBox="0 0 32 32">
<path fill="#fff" style="fill: var(--color1, #fff)" d="M16 2.881c4.275 0 4.781 0.019 6.462 0.094 1.563 0.069 2.406 0.331 2.969 0.55 0.744 0.288 1.281 0.638 1.837 1.194 0.563 0.563 0.906 1.094 1.2 1.838 0.219 0.563 0.481 1.412 0.55 2.969 0.075 1.688 0.094 2.194 0.094 6.463s-0.019 4.781-0.094 6.463c-0.069 1.563-0.331 2.406-0.55 2.969-0.288 0.744-0.637 1.281-1.194 1.837-0.563 0.563-1.094 0.906-1.837 1.2-0.563 0.219-1.413 0.481-2.969 0.55-1.688 0.075-2.194 0.094-6.463 0.094s-4.781-0.019-6.463-0.094c-1.563-0.069-2.406-0.331-2.969-0.55-0.744-0.288-1.281-0.637-1.838-1.194-0.563-0.563-0.906-1.094-1.2-1.837-0.219-0.563-0.481-1.413-0.55-2.969-0.075-1.688-0.094-2.194-0.094-6.463s0.019-4.781 0.094-6.463c0.069-1.563 0.331-2.406 0.55-2.969 0.288-0.744 0.638-1.281 1.194-1.838 0.563-0.563 1.094-0.906 1.838-1.2 0.563-0.219 1.412-0.481 2.969-0.55 1.681-0.075 2.188-0.094 6.463-0.094h0.001zM16 0c-4.344 0-4.887 0.019-6.594 0.094-1.7 0.075-2.869 0.35-3.881 0.744-1.056 0.412-1.95 0.956-2.837 1.85-0.894 0.888-1.438 1.781-1.85 2.831-0.394 1.019-0.669 2.181-0.744 3.881-0.075 1.713-0.094 2.256-0.094 6.6s0.019 4.887 0.094 6.594c0.075 1.7 0.35 2.869 0.744 3.881 0.413 1.056 0.956 1.95 1.85 2.837 0.887 0.887 1.781 1.438 2.831 1.844 1.019 0.394 2.181 0.669 3.881 0.744 1.706 0.075 2.25 0.094 6.594 0.094s4.888-0.019 6.594-0.094c1.7-0.075 2.869-0.35 3.881-0.744 1.050-0.406 1.944-0.956 2.831-1.844s1.438-1.781 1.844-2.831c0.394-1.019 0.669-2.181 0.744-3.881 0.075-1.706 0.094-2.25 0.094-6.594s-0.019-4.887-0.094-6.594c-0.075-1.7-0.35-2.869-0.744-3.881-0.394-1.063-0.938-1.956-1.831-2.844-0.887-0.887-1.781-1.438-2.831-1.844-1.019-0.394-2.181-0.669-3.881-0.744-1.712-0.081-2.256-0.1-6.6-0.1l-0.001 0.001z"></path>
<path fill="#fff" style="fill: var(--color1, #fff)" d="M16 7.781c-4.537 0-8.219 3.681-8.219 8.219s3.681 8.219 8.219 8.219c4.538 0 8.219-3.681 8.219-8.219 0-4.537-3.681-8.219-8.219-8.219zM16 21.331c-2.944 0-5.331-2.387-5.331-5.331s2.387-5.331 5.331-5.331c2.944 0 5.331 2.387 5.331 5.331s-2.387 5.331-5.331 5.331z"></path>
<path fill="#fff" style="fill: var(--color1, #fff)" d="M26.462 7.456c0 1.060-0.859 1.919-1.919 1.919s-1.919-0.859-1.919-1.919c0-1.060 0.859-1.919 1.919-1.919s1.919 0.859 1.919 1.919z"></path>
</symbol>
<symbol id="icon-telegram" viewBox="0 0 32 32">
<path fill="#fff" style="fill: var(--color1, #fff)" d="M16 0c-8.838 0-16 7.162-16 16s7.162 16 16 16c8.838 0 16-7.163 16-16s-7.163-16-16-16zM23.863 10.969l-2.625 12.369c-0.181 0.881-0.712 1.087-1.45 0.681l-4-2.956-1.919 1.869c-0.225 0.219-0.4 0.4-0.8 0.4-0.519 0-0.431-0.194-0.606-0.688l-1.363-4.475-3.956-1.231c-0.856-0.262-0.862-0.85 0.194-1.269l15.412-5.95c0.7-0.319 1.381 0.169 1.113 1.25z"></path>
</symbol>
<symbol id="icon-youtube" viewBox="0 0 32 32">
<path fill="#fff" style="fill: var(--color1, #fff)" d="M31.681 9.6c0 0-0.313-2.206-1.275-3.175-1.219-1.275-2.581-1.281-3.206-1.356-4.475-0.325-11.194-0.325-11.194-0.325h-0.012c0 0-6.719 0-11.194 0.325-0.625 0.075-1.987 0.081-3.206 1.356-0.963 0.969-1.269 3.175-1.269 3.175s-0.319 2.588-0.319 5.181v2.425c0 2.587 0.319 5.181 0.319 5.181s0.313 2.206 1.269 3.175c1.219 1.275 2.819 1.231 3.531 1.369 2.563 0.244 10.881 0.319 10.881 0.319s6.725-0.012 11.2-0.331c0.625-0.075 1.988-0.081 3.206-1.356 0.962-0.969 1.275-3.175 1.275-3.175s0.319-2.587 0.319-5.181v-2.425c-0.006-2.588-0.325-5.182-0.325-5.182zM12.694 20.15v-8.994l8.644 4.513-8.644 4.481z"></path>
</symbol>
<symbol id="icon-user" viewBox="0 0 30 32">
<path fill="#fff" style="fill: var(--color1, #fff)" d="M7.156 8.076c0 4.608 3.476 8.35 7.753 8.35s7.753-3.742 7.753-8.35c0-4.464-3.331-7.844-7.753-7.844s-7.753 3.38-7.753 7.844zM9.498 8.090c0-3.207 2.269-5.533 5.411-5.533 3.084 0 5.411 2.369 5.411 5.533 0 3.337-2.429 6.039-5.411 6.039s-5.411-2.716-5.411-6.038zM0 30.856c0 0.636 0.524 1.156 1.164 1.156h27.491c0.64 0 1.164-0.52 1.164-1.156 0-8.205-5.295-12.727-14.909-12.727s-14.909 4.522-14.909 12.727zM27.447 29.686h-25.062c0.451-6.125 4.655-9.246 12.524-9.246s12.073 3.106 12.538 9.246z"></path>
</symbol>
<symbol id="icon-cush-logo" viewBox="0 0 32 32">
<path d="M0 0h31.584v32h-31.584v-32z"></path>
</symbol>
<symbol id='icon-number' viewBox="0 0 12 12">
<path d="M9.46474 11.6672C9.4246 11.6672 9.37945 11.6672 9.33931 11.6622C7.7188 11.4876 6.14344 10.9288 4.78381 10.0506C3.51951 9.25232 2.42579 8.16463 1.62306 6.90731C0.740057 5.5502 0.178146 3.97854 0.00756526 2.36697C-0.0325713 1.95784 0.0878383 1.56866 0.348726 1.26431C0.604596 0.95497 0.970842 0.770363 1.36719 0.730448C1.41234 0.725458 1.4575 0.725458 1.50265 0.725458H3.00777C3.01279 0.725458 3.01781 0.725458 3.02282 0.725458C3.76535 0.725458 4.40252 1.27429 4.50787 2.01272C4.56808 2.45678 4.67846 2.89085 4.83398 3.30996C5.03968 3.8538 4.90924 4.47249 4.49282 4.88661L4.13159 5.24584C4.72361 6.16389 5.50627 6.94722 6.43443 7.53597L6.79566 7.17674C7.21207 6.76761 7.83921 6.63289 8.38607 6.83746C8.80248 6.99213 9.24399 7.10189 9.68549 7.15678C10.4431 7.26156 11 7.91517 10.9849 8.66856V10.1604C10.9849 10.5595 10.8294 10.9337 10.5484 11.2181C10.2675 11.5025 9.88617 11.6572 9.48481 11.6622C9.47477 11.6672 9.46976 11.6672 9.46474 11.6672ZM3.01781 1.72334C3.01279 1.72334 3.01279 1.72334 3.01781 1.72334H1.50265C1.32204 1.7383 1.20163 1.79818 1.11634 1.90295C1.03105 2.00274 0.990911 2.13247 1.00094 2.26718C1.15647 3.71909 1.6632 5.13608 2.46593 6.36845C3.1934 7.50604 4.18177 8.48895 5.32566 9.21241C6.55986 10.0107 7.9847 10.5096 9.43965 10.6693C9.61525 10.6893 9.73566 10.6194 9.83098 10.5246C9.92631 10.4298 9.97648 10.3051 9.97648 10.1704V8.67355C9.97648 8.66856 9.97648 8.66357 9.97648 8.65858C9.9815 8.40413 9.79587 8.18958 9.54501 8.15466C9.03327 8.08979 8.52153 7.96007 8.02986 7.78045C7.84423 7.7106 7.63853 7.7555 7.49805 7.89022L6.86088 8.52387C6.70033 8.68353 6.4545 8.71347 6.25883 8.6037C4.92429 7.8503 3.82054 6.74765 3.06296 5.42546C2.95258 5.23087 2.98269 4.98639 3.14323 4.82673L3.7804 4.19308C3.91586 4.04839 3.96101 3.84383 3.89078 3.65922C3.70514 3.17026 3.57972 2.66134 3.50948 2.14743C3.47938 1.90794 3.26364 1.72334 3.01781 1.72334ZM8.97307 5.19096C8.73726 5.19096 8.52655 5.02631 8.48139 4.78682C8.32586 3.98353 7.70375 3.36484 6.896 3.21017C6.62508 3.15529 6.44446 2.89584 6.49965 2.62641C6.55484 2.35699 6.81573 2.17737 7.08665 2.23225C8.29576 2.46675 9.22894 3.39478 9.46474 4.59722C9.51993 4.86665 9.33931 5.13109 9.06839 5.18098C9.03327 5.18597 9.00317 5.19096 8.97307 5.19096ZM10.9799 5.18597C10.729 5.18597 10.5083 4.99637 10.4832 4.74191C10.2725 2.87588 8.81252 1.42896 6.93614 1.21941C6.6602 1.18947 6.46453 0.940002 6.49463 0.670575C6.52474 0.396159 6.78061 0.196583 7.04651 0.231509C9.3945 0.490957 11.2157 2.3021 11.4766 4.63215C11.5067 4.90656 11.311 5.15104 11.0351 5.18597C11.015 5.18597 10.9949 5.18597 10.9799 5.18597Z" fill="#FF715B"/>
</symbol>
<symbol id='icon-email' viewBox="0 0 12 10" >
<path d="M9.53243 0.518066H1.50512C0.677304 0.518066 0 1.19163 0 2.01488V8.00215C0 8.8254 0.677304 9.49896 1.50512 9.49896H9.53243C10.3602 9.49896 11.0375 8.8254 11.0375 8.00215V2.01488C11.0375 1.19163 10.3602 0.518066 9.53243 0.518066ZM1.50512 1.51594H9.53243C9.72809 1.51594 9.89366 1.6307 9.97895 1.79535L5.51877 4.89875L1.0586 1.79535C1.14389 1.6307 1.30945 1.51594 1.50512 1.51594ZM9.53243 8.50109H1.50512C1.22918 8.50109 1.00341 8.27656 1.00341 8.00215V2.97284L5.2328 5.91658C5.31809 5.97646 5.41843 6.00639 5.51877 6.00639C5.61912 6.00639 5.71946 5.97646 5.80475 5.91658L10.0341 2.97284V8.00215C10.0341 8.27656 9.80837 8.50109 9.53243 8.50109Z" fill="#FF715B"/>
</symbol>
<symbol id='icon-adress' viewBox="0 0 12 14" >
<path fill-rule="evenodd" clip-rule="evenodd" d="M5.21524 13.5948C5.30354 13.6566 5.41392 13.6903 5.51877 13.6903C5.62363 13.6903 5.73401 13.6566 5.82231 13.5948C6.03754 13.4544 11.0375 10.0105 11.0375 5.82507C11.0375 2.72953 8.55962 0.207031 5.51877 0.207031C2.47793 0.207031 0 2.72953 0 5.82507C0 10.0105 5.00001 13.4544 5.21524 13.5948ZM1.10375 5.82507C1.10375 3.34751 3.085 1.33064 5.51877 1.33064C7.95255 1.33064 9.93379 3.34751 9.93379 5.82507C9.93379 8.86442 6.56734 11.6453 5.51877 12.4375C4.47021 11.6453 1.10375 8.86442 1.10375 5.82507ZM3.22784 5.82556C3.22784 7.06724 4.19078 8.07294 5.37965 8.07294C6.56852 8.07294 7.53146 7.06724 7.53146 5.82556C7.53146 4.58388 6.56852 3.57818 5.37965 3.57818C4.19078 3.57818 3.22784 4.58388 3.22784 5.82556ZM4.30375 5.82556C4.30375 5.20753 4.7879 4.70187 5.37965 4.70187C5.9714 4.70187 6.45555 5.20753 6.45555 5.82556C6.45555 6.44359 5.9714 6.94925 5.37965 6.94925C4.7879 6.94925 4.30375 6.44359 4.30375 5.82556Z" fill="#FF715B"/>
</symbol>
<symbol id='plus' viewBox="0 0 59 59">
  <path d="M29.5 12.2915V46.7082M12.2917 29.4998H46.7084" stroke="#1E1E1E" stroke-width="4" stroke-linecap="round" stroke-linejoin="round" />
</symbol>
<svg id='search' viewBox="0 0 59 59">
  <path d="M51.625 51.625L40.9312 40.9312M46.7083 27.0417C46.7083 37.9033 37.9033 46.7083 27.0417 46.7083C16.1801 46.7083 7.375 37.9033 7.375 27.0417C7.375 16.1801 16.1801 7.375 27.0417 7.375C37.9033 7.375 46.7083 16.1801 46.7083 27.0417Z" stroke="#1E1E1E" stroke-width="4" stroke-linecap="round" stroke-linejoin="round" />
</svg>
</defs>
</svg>
