<svg width="12" height="10" viewBox="0 0 12 10" fill="none" xmlns="http://www.w3.org/2000/svg">
<path d="M9.53243 0.518066H1.50512C0.677304 0.518066 0 1.19163 0 2.01488V8.00215C0 8.8254 0.677304 9.49896 1.50512 9.49896H9.53243C10.3602 9.49896 11.0375 8.8254 11.0375 8.00215V2.01488C11.0375 1.19163 10.3602 0.518066 9.53243 0.518066ZM1.50512 1.51594H9.53243C9.72809 1.51594 9.89366 1.6307 9.97895 1.79535L5.51877 4.89875L1.0586 1.79535C1.14389 1.6307 1.30945 1.51594 1.50512 1.51594ZM9.53243 8.50109H1.50512C1.22918 8.50109 1.00341 8.27656 1.00341 8.00215V2.97284L5.2328 5.91658C5.31809 5.97646 5.41843 6.00639 5.51877 6.00639C5.61912 6.00639 5.71946 5.97646 5.80475 5.91658L10.0341 2.97284V8.00215C10.0341 8.27656 9.80837 8.50109 9.53243 8.50109Z" fill="#FF715B"/>
</svg>
