<svg width="12" height="14" viewBox="0 0 12 14" fill="none" xmlns="http://www.w3.org/2000/svg">
<path fill-rule="evenodd" clip-rule="evenodd" d="M5.21524 13.5948C5.30354 13.6566 5.41392 13.6903 5.51877 13.6903C5.62363 13.6903 5.73401 13.6566 5.82231 13.5948C6.03754 13.4544 11.0375 10.0105 11.0375 5.82507C11.0375 2.72953 8.55962 0.207031 5.51877 0.207031C2.47793 0.207031 0 2.72953 0 5.82507C0 10.0105 5.00001 13.4544 5.21524 13.5948ZM1.10375 5.82507C1.10375 3.34751 3.085 1.33064 5.51877 1.33064C7.95255 1.33064 9.93379 3.34751 9.93379 5.82507C9.93379 8.86442 6.56734 11.6453 5.51877 12.4375C4.47021 11.6453 1.10375 8.86442 1.10375 5.82507ZM3.22784 5.82556C3.22784 7.06724 4.19078 8.07294 5.37965 8.07294C6.56852 8.07294 7.53146 7.06724 7.53146 5.82556C7.53146 4.58388 6.56852 3.57818 5.37965 3.57818C4.19078 3.57818 3.22784 4.58388 3.22784 5.82556ZM4.30375 5.82556C4.30375 5.20753 4.7879 4.70187 5.37965 4.70187C5.9714 4.70187 6.45555 5.20753 6.45555 5.82556C6.45555 6.44359 5.9714 6.94925 5.37965 6.94925C4.7879 6.94925 4.30375 6.44359 4.30375 5.82556Z" fill="#FF715B"/>
</svg>
