<svg width="12" height="12" viewBox="0 0 12 12" fill="none" xmlns="http://www.w3.org/2000/svg">
<path d="M9.46474 11.6672C9.4246 11.6672 9.37945 11.6672 9.33931 11.6622C7.7188 11.4876 6.14344 10.9288 4.78381 10.0506C3.51951 9.25232 2.42579 8.16463 1.62306 6.90731C0.740057 5.5502 0.178146 3.97854 0.00756526 2.36697C-0.0325713 1.95784 0.0878384 1.56866 0.348726 1.26431C0.604596 0.95497 0.970842 0.770363 1.36719 0.730448C1.41234 0.725458 1.4575 0.725458 1.50265 0.725458H3.00777C3.01279 0.725458 3.01781 0.725458 3.02282 0.725458C3.76535 0.725458 4.40252 1.27429 4.50787 2.01272C4.56808 2.45678 4.67846 2.89085 4.83398 3.30996C5.03968 3.8538 4.90924 4.47249 4.49282 4.88661L4.13159 5.24584C4.72361 6.16389 5.50627 6.94722 6.43443 7.53597L6.79566 7.17674C7.21207 6.76761 7.83921 6.63289 8.38607 6.83746C8.80248 6.99213 9.24399 7.10189 9.68549 7.15678C10.4431 7.26156 11 7.91517 10.9849 8.66856V10.1604C10.9849 10.5595 10.8294 10.9337 10.5484 11.2181C10.2675 11.5025 9.88617 11.6572 9.48481 11.6622C9.47477 11.6672 9.46976 11.6672 9.46474 11.6672ZM3.01781 1.72334C3.01279 1.72334 3.01279 1.72334 3.01781 1.72334H1.50265C1.32204 1.7383 1.20163 1.79818 1.11634 1.90295C1.03105 2.00274 0.990911 2.13247 1.00094 2.26718C1.15647 3.71909 1.6632 5.13608 2.46593 6.36845C3.1934 7.50604 4.18177 8.48895 5.32566 9.21241C6.55986 10.0107 7.9847 10.5096 9.43965 10.6693C9.61525 10.6893 9.73566 10.6194 9.83098 10.5246C9.92631 10.4298 9.97648 10.3051 9.97648 10.1704V8.67355C9.97648 8.66856 9.97648 8.66357 9.97648 8.65858C9.9815 8.40413 9.79587 8.18958 9.54501 8.15466C9.03327 8.08979 8.52153 7.96007 8.02986 7.78045C7.84422 7.7106 7.63853 7.7555 7.49805 7.89022L6.86088 8.52387C6.70033 8.68353 6.4545 8.71347 6.25883 8.6037C4.92429 7.8503 3.82054 6.74765 3.06296 5.42546C2.95258 5.23087 2.98269 4.98639 3.14323 4.82673L3.7804 4.19308C3.91586 4.04839 3.96101 3.84383 3.89078 3.65922C3.70514 3.17026 3.57972 2.66134 3.50948 2.14743C3.47938 1.90794 3.26364 1.72334 3.01781 1.72334ZM8.97307 5.19096C8.73726 5.19096 8.52655 5.02631 8.48139 4.78682C8.32586 3.98353 7.70375 3.36484 6.896 3.21017C6.62508 3.15529 6.44446 2.89584 6.49965 2.62641C6.55484 2.35699 6.81573 2.17737 7.08665 2.23225C8.29576 2.46675 9.22894 3.39478 9.46474 4.59722C9.51993 4.86665 9.33931 5.13109 9.06839 5.18098C9.03327 5.18597 9.00317 5.19096 8.97307 5.19096ZM10.9799 5.18597C10.729 5.18597 10.5083 4.99637 10.4832 4.74191C10.2725 2.87588 8.81252 1.42896 6.93614 1.21941C6.6602 1.18947 6.46453 0.940002 6.49463 0.670575C6.52474 0.396159 6.78061 0.196583 7.04651 0.231509C9.3945 0.490957 11.2157 2.3021 11.4766 4.63215C11.5067 4.90656 11.311 5.15104 11.0351 5.18597C11.015 5.18597 10.9949 5.18597 10.9799 5.18597Z" fill="#FF715B"/>
</svg>
